<?xml version="1.0" encoding="utf-8"?>
<!-- Generator: Adobe Illustrator 16.0.0, SVG Export Plug-In . SVG Version: 6.00 Build 0)  -->
<!DOCTYPE svg PUBLIC "-//W3C//DTD SVG 1.1//EN" "http://www.w3.org/Graphics/SVG/1.1/DTD/svg11.dtd">
<svg version="1.1" id="Layer_1" xmlns="http://www.w3.org/2000/svg" xmlns:xlink="http://www.w3.org/1999/xlink" x="0px" y="0px"
	 width="577px" height="312px" viewBox="102.5 86.5 577 312" enable-background="new 102.5 86.5 577 312" xml:space="preserve">
<g id="Fills">
	<path fill="#83C167" d="M113.667,162.995v170.667c0,0,186.167,7.089,198,0.839l-1.417-1.75l-24.25-2.5L274.75,325l-5.655-9.403
		l-6.716-24.507l-11.135-31.087l-12.208-24.596l-17.37-22.887l-18.313-16.4l-13.687-10.459l-11.918-10.115l-15.875-9.683
		l-13.09-2.446l-17.786-1.091h-8.248l-4,1.173L113.667,162.995z"/>
	<path fill="#83C167" d="M435.417,158.5v188c0,0,98.323,1.656,108.203,3.828s85.714,1.578,87.797,0l-11.993-1.35l-29.92-3.284
		l-17.67-8.618L560.75,325l-9.337-29.521l-8.513-35.156l-7.75-24.103l-10.814-26.505l-10.381-11.184l-12.918-17.008l-12.786-13.469
		l-8.437-5.728l-16.311-5.131l-13.005-0.478C450.5,156.718,441.084,156.25,435.417,158.5z"/>
</g>
<g id="Outlines">
	<g>
		<g>
			<path fill="#699C52" d="M113.438,163.386c2.426,1.724,6.04,0.938,8.768,0.499c7.23-1.166,14.867-0.684,22.127-0.06
				c7.871,0.677,15.981,1.456,22.988,5.397c6.158,3.464,11.484,8.326,16.784,12.943c9.18,7.999,19.257,14.87,28.353,22.993
				c9.779,8.733,18.397,18.611,25.08,29.918c7.328,12.397,13.325,25.985,18.357,39.451c4.067,10.883,6.104,22.072,9.155,33.222
				c2.345,8.567,5.894,16.584,13.912,21.057c9.853,5.496,21.852,3.16,32.357,6.114c1.623,0.457,2.313-2.069,0.693-2.516
				c-10.929-3.011-22.794-0.814-33.037-6.511c-8.933-4.967-11.307-17.268-13.416-26.389c-5.736-24.813-15.414-49.714-29.508-71.061
				c-13.75-20.827-34.554-33.813-53.119-49.728c-9.07-7.775-17.808-14.085-29.957-15.648c-6.991-0.9-14.011-1.432-21.061-1.325
				c-2.902,0.044-6.267-0.08-9.103,0.575c-2.525,0.583-6.454,1.697-8.918,0.286C113.379,162.308,112.969,163.053,113.438,163.386
				L113.438,163.386z"/>
		</g>
	</g>
	<g>
		<g>
			<path fill="#699C52" d="M435.417,158.168c14.006-0.833,28.901-2.135,41.913,4.107c12.564,6.028,21.025,17.65,29.198,28.458
				c9.068,11.996,17.163,24.468,23.741,38.002c6.481,13.335,10.106,27.98,13.768,42.277c5.398,21.096,7.023,46.233,21.941,63.283
				c15.345,17.537,42.55,15.523,63.761,17.149c0.492,0.036,0.996,0.063,1.458,0.246c-0.399-0.524-0.799-1.051-1.198-1.574
				c0.197-0.4,0.396-0.8,0.594-1.2c-1.889,0.931-0.232,3.747,1.648,2.82c0.075-0.037,0.149-0.074,0.226-0.111
				c0.465-0.229,0.866-0.886,0.81-1.41c-0.004-0.033-0.007-0.064-0.012-0.099c-0.088-0.8-0.451-1.277-1.198-1.575
				c-2.531-1.01-6.062-0.594-8.741-0.812c-5.871-0.474-11.782-0.775-17.666-1.36c-14.577-1.45-28.146-3.885-38.239-15.395
				c-7.827-8.927-11.056-21.123-13.663-32.417c-2.836-12.287-5.521-24.553-8.789-36.741c-3.633-13.551-8.158-26.52-14.341-39.114
				c-6.423-13.084-15.25-24.991-24.187-36.442c-7.648-9.801-15.541-19.328-26.707-25.241c-11.033-5.843-23.859-5.575-35.971-4.657
				c-2.786,0.211-5.565,0.498-8.346,0.789C434.778,157.22,434.755,158.208,435.417,158.168L435.417,158.168z"/>
		</g>
	</g>
	<g>
		<path fill="#AAAAAA" d="M254.333,200.327c-4,0-10-0.667-14,0.667c-10.667,4-10,18.667-2.667,25.333
			c26,23.333,37.333-28,17.333-29.333"/>
		<g>
			<path fill="#666666" d="M254.333,200.1c-6.803-0.559-13.881-1.744-19.245,3.363c-4.197,3.997-4.341,10.692-2.867,15.874
				c2.491,8.763,13.904,16.781,22.971,13.19c7.613-3.015,10.758-12.502,11.156-19.973c0.364-6.826-2.784-17.128-11.349-16.256
				c-0.759,0.077-0.973,1.126-0.185,1.366c13.212,4.023,11.175,24.392,1.769,31.591c-6.924,5.299-16.669-0.598-20.807-6.707
				c-3.243-4.788-3.547-11.447-0.662-16.42c3.817-6.578,12.8-5.225,19.219-5.575C254.627,200.537,254.623,200.124,254.333,200.1
				L254.333,200.1z"/>
		</g>
	</g>
	<g>
		<g>
			<path fill="#333333" d="M232.515,195.176c3.448-2.817-8.832-10.491-10.719-11.738c-0.243-0.161-0.538,0.217-0.312,0.405
				c1.446,1.208,12.691,8.968,10.667,10.969C231.91,195.05,232.263,195.382,232.515,195.176L232.515,195.176z"/>
		</g>
	</g>
	<g>
		<g>
			<path fill="#333333" d="M237.241,194.393c0.963-4.982-2.548-9.553-5.551-13.15c-4.024-4.821-9.176-9.221-14.552-12.485
				c-0.261-0.158-0.575,0.229-0.332,0.43c7.503,6.16,19.819,14.342,19.943,25.14C236.752,194.602,237.186,194.677,237.241,194.393
				L237.241,194.393z"/>
		</g>
	</g>
	<g>
		<g>
			<path fill="#333333" d="M242.333,191.251c4.202,0.511-0.598-10.17-1.233-11.316c-4.075-7.353-11.555-13.507-18.594-17.906
				c-0.328-0.205-0.716,0.284-0.417,0.54c4.304,3.683,8.696,7.171,12.611,11.286c2.289,2.406,4.26,5.078,5.893,7.965
				c0.262,0.463,3.914,8.839,1.74,8.915C241.992,190.748,242.011,191.212,242.333,191.251L242.333,191.251z"/>
		</g>
	</g>
	<g>
		<g>
			<path fill="#333333" d="M131.046,118.152c-4.995-1.111-9.425,2.677-10.61,7.4c-1.614,6.434,5.301,9.286,10.53,9.027
				c5.806-0.288,13.451-5.48,12.192-12.112c-1.151-6.063-8.585-9.646-13.797-5.995c-0.581,0.407-0.208,1.201,0.463,1.1
				c4.235-0.637,9.253,0.205,10.723,4.853c1.645,5.203-4.966,8.979-9.032,9.817c-4.665,0.963-10.462-1.298-9.245-6.851
				c0.857-3.914,4.743-7.039,8.728-6.887C131.2,118.513,131.244,118.196,131.046,118.152L131.046,118.152z"/>
		</g>
	</g>
	<g>
		<g>
			<path fill="#333333" d="M130.271,133.659c-0.209,4.201,0.418,8.184,1.357,12.243c1.524,6.585-2.548,9.063-6.753,12.968
				c0.526,0.525,1.051,1.052,1.577,1.577c2.647-3.067,5.881-5.523,8.162-8.899c-0.577,0.074-1.153,0.148-1.729,0.223
				c3.546,2.84,7.04,5.751,10.874,8.2c1.234,0.788,2.379-1.183,1.144-1.956c-3.698-2.315-7.068-5.066-10.46-7.8
				c-0.575-0.463-1.3-0.407-1.729,0.223c-2.181,3.207-5.325,5.512-7.838,8.434c-0.932,1.083,0.515,2.569,1.577,1.577
				c3.446-3.216,7.082-5.399,7.775-10.38c0.279-2.001-0.366-4.226-0.857-6.144c-0.866-3.379-1.2-6.994-1.673-10.458
				C131.583,132.618,130.31,132.883,130.271,133.659L130.271,133.659z"/>
		</g>
	</g>
	<g>
		<g>
			<path fill="#333333" d="M131.407,147.25c-1.278-1.354-2.932-2.269-4.551-3.154c-1.428-0.78-3.505-2.546-5.191-2.349
				c-0.386,0.045-0.641,0.333-0.558,0.732c0.332,1.593,2.27,2.23,3.581,2.873c1.985,0.974,4.011,1.881,6.019,2.805
				C131.288,148.426,131.879,147.75,131.407,147.25L131.407,147.25z"/>
		</g>
	</g>
	<g>
		<g>
			<path fill="#333333" d="M131.25,148.757c5.237-2.279,9.447-6.522,14.323-9.447c1.26-0.755,0.12-2.718-1.151-1.97
				c-4.97,2.927-9.243,7.096-13.778,10.631C130.158,148.352,130.778,148.963,131.25,148.757L131.25,148.757z"/>
		</g>
	</g>
	<g>
		<path fill="#AAAAAA" d="M540.082,197.33c0.667-0.667,0.667-0.667,0.667-1.333c-13.334-4.667-22.667,15.333-11.334,24
			c6,4.667,20.667,4.667,24.667-3.333c3.333-6.667-1.333-15.333-7.333-19.333"/>
		<g>
			<path fill="#666666" d="M540.244,197.606c0.829-0.617,0.802-0.521,1.148-1.432c0.097-0.251-0.054-0.647-0.308-0.755
				c-15.984-6.803-24.558,19.621-9.854,26.987c6.861,3.438,17.277,2.635,22.575-3.209c6.123-6.755,0.707-19.427-6.891-22.478
				c-0.646-0.259-0.979,0.629-0.615,1.058c4.699,5.557,11.642,13.338,5.171,20.513c-4.309,4.778-12.955,4.328-18.438,2.414
				c-6.336-2.212-8.543-9.078-6.997-15.101c0.689-2.69,2.291-4.996,4.311-6.852c1.269-1.165,2.927-1.859,4.557-2.314
				c0.377-0.105,5.726-0.756,4.902,0.731C539.662,197.428,539.971,197.809,540.244,197.606L540.244,197.606z"/>
		</g>
	</g>
	<g>
		<g>
			<path fill="#333333" d="M564.246,214.826c-2.557-2.484-4.478,0.58-5.345,3.138c-1.365,4.018-0.027,7.78,3.904,9.388
				c3.632,1.484,8.743,0.64,10.949-2.785c3.323-5.158-2.982-7.867-6.843-8.845c-0.725-0.184-1.033,0.737-0.481,1.142
				c2.322,1.706,7.335,2.722,5.46,6.613c-1.256,2.605-5.213,2.768-7.617,2.26c-3-0.633-4.131-2.69-3.938-5.592
				c0.084-1.249,1.386-6.729,3.577-4.989C564.145,215.34,564.468,215.042,564.246,214.826L564.246,214.826z"/>
		</g>
	</g>
	<g>
		<g>
			<path fill="#333333" d="M563.602,228.376c0.115-0.29,0.271-0.555,0.467-0.794c0.686-0.917-1.333-1.763-1.412-0.382
				c-0.237,4.15-0.242,8.302-0.26,12.458c0.339-0.339,0.678-0.679,1.018-1.018c-7.963-0.076-15.944-0.532-23.613,2.001
				c-1.313,0.434-0.764,2.25,0.562,2.034c0.435-0.04,0.842-0.175,1.221-0.407c0.599-0.249,0.599-0.972,0-1.221
				c-0.379-0.231-0.786-0.367-1.221-0.407c0,0.678,0,1.356,0,2.034c7.481-2.472,15.288-2.005,23.053-1.999
				c0.553,0,1.021-0.463,1.018-1.018c-0.018-4.156-0.021-8.308-0.26-12.458c-0.079-1.381-2.098-0.535-1.412,0.382
				c0.195,0.24,0.352,0.504,0.466,0.794C563.26,228.564,563.566,228.564,563.602,228.376L563.602,228.376z"/>
		</g>
	</g>
	<g>
		<g>
			<path fill="#333333" d="M552.014,240.75c-4.419,0.633-6.229,4.931-7.748,8.625c-1.031,2.515-1.986,5.032-3.774,7.122
				c-0.574,0.671-0.31,1.458,0.451,1.71c0.336,0.112,0.754-0.012,0.995-0.263c4.646-4.833,4.166-13.052,10.27-16.737
				C552.466,241.05,552.281,240.712,552.014,240.75L552.014,240.75z"/>
		</g>
	</g>
	<g>
		<g>
			<path fill="#333333" d="M553.413,239.554c0.726,0,0.726-1.125,0-1.125S552.688,239.554,553.413,239.554L553.413,239.554z"/>
		</g>
	</g>
	<g>
		<g>
			<path fill="#333333" d="M556.175,239.82c2.318-1.578,1.37-4.634,0.577-6.857c-0.648-1.822-1.568-3.577-2.486-5.274
				c-0.671-1.243-1.275-3.144-2.532-3.91c-0.337-0.205-0.844-0.02-0.931,0.378c-0.433,1.997,1.85,4.712,2.767,6.343
				c1.209,2.148,4.14,6.624,2.35,9.063C555.807,239.715,556.023,239.922,556.175,239.82L556.175,239.82z"/>
		</g>
	</g>
	<g>
		<g>
			<path fill="#333333" d="M569.87,251.447c-2.679,2.542,2.487,7.116,3.934,9.038c0.201,0.267,0.716,0.125,0.585-0.247
				c-0.513-1.467-1.51-2.672-2.422-3.905c-0.809-1.092-2.595-3.104-1.63-4.527C570.531,251.519,570.107,251.222,569.87,251.447
				L569.87,251.447z"/>
		</g>
	</g>
	<g>
		<g>
			<path fill="#333333" d="M565.997,258.907c-0.113,0.075-0.226,0.15-0.339,0.226c-0.246-0.003-0.4,0.162-0.488,0.371
				c-1.038,2.479,2.222,6.208,3.537,7.951c1.686,2.236,3.921,5.443,6.608,6.556c0.292,0.121,0.597-0.291,0.415-0.54
				c-1.866-2.547-4.25-4.731-6.176-7.252c-0.759-0.993-4.583-5.86-3.393-7.146C566.267,258.96,566.112,258.811,565.997,258.907
				L565.997,258.907z"/>
		</g>
	</g>
</g>
<g id="Text">
	<g>
		<g>
			<g>
				<path fill="#333333" d="M179.812,98.997c-0.639,2.92-3.116,8.08-0.97,10.894c1.653,2.167,5.545,0.898,6.284-1.42
					c0.115-0.36-0.285-0.567-0.574-0.44c-1.226,0.536-2.171,1.406-3.634,1.168c-1.287-0.21-1.067-1.639-1.073-2.581
					c-0.015-2.563,1.172-4.924,0.858-7.5C180.645,98.648,179.93,98.455,179.812,98.997L179.812,98.997z"/>
			</g>
		</g>
		<g>
			<g>
				<path fill="#333333" d="M177.397,105.617c0.05,1.083,1.464,0.537,2.018,0.294c0.633-0.277,1.246-0.607,1.842-0.958
					c0.353-0.207,0.917-0.481,1.093-0.881c0.083-0.188,0.071-0.453-0.146-0.556c-0.681-0.322-1.605,0.387-2.145,0.736
					c-0.435,0.281-0.872,0.558-1.326,0.81c-0.166,0.092-0.336,0.173-0.51,0.249c-0.063,0.029-0.125,0.06-0.187,0.092
					c-0.364,0.153,0.026-0.046,0.051,0.12C178.027,105.129,177.379,105.226,177.397,105.617L177.397,105.617z"/>
			</g>
		</g>
		<g>
			<g>
				<path fill="#333333" d="M188.455,99.198c0.941,3.23,1.371,6.298,1.305,9.669c-0.016,0.82,1.297,1.027,1.452,0.196
					c0.268-1.438,0.288-3.445,1.637-4.348c-0.28-0.036-0.56-0.072-0.84-0.108c1.169,1.39,0.7,5.313,3.24,5.275
					c0.36-0.005,0.684-0.446,0.445-0.775c-0.69-0.957-1.234-1.621-1.55-2.819c-0.258-0.98-0.521-1.862-1.155-2.661
					c-0.187-0.235-0.6-0.26-0.84-0.108c-1.754,1.104-2.105,3.236-2.363,5.152c0.484,0.065,0.968,0.131,1.452,0.196
					c-0.099-3.208-0.205-7.236-2.226-9.903C188.815,98.704,188.351,98.842,188.455,99.198L188.455,99.198z"/>
			</g>
		</g>
		<g>
			<g>
				<path fill="#333333" d="M197.051,106.204c1.064,0.457,0.714,1.739,1.141,2.563c0.269,0.518,0.999,0.339,1.163-0.152
					c0.195-0.585-0.18-1.415-0.431-1.932c-0.334-0.688-0.91-1.146-1.676-1.207C196.875,105.447,196.695,106.052,197.051,106.204
					L197.051,106.204z"/>
			</g>
		</g>
		<g>
			<g>
				<path fill="#333333" d="M196.897,102.617c-0.005-0.054-0.104-0.567-0.162-0.466c-0.344-0.045-0.687-0.09-1.03-0.135
					c0.125,0.475,0.264,0.932,0.57,1.324c0.182,0.234,0.59,0.513,0.901,0.33c0.822-0.481-0.183-1.765-0.529-2.202
					c-0.443-0.561-1.338,0.288-0.797,0.797c0.14,0.132,0.227,0.268,0.264,0.457C196.202,103.161,196.941,103.065,196.897,102.617
					L196.897,102.617z"/>
			</g>
		</g>
		<g>
			<g>
				<path fill="#333333" d="M205.187,103.68c-0.993-1.042-2.728-0.897-3.577,0.272c-0.634,0.875,0.106,1.621,0.897,1.988
					c0.92,0.428,1.98,0.528,2.872,1.003c0.251,0.133,0.493,0.285,0.702,0.478c0.117,0.107,0.086,0.212,0.12,0.075
					c0.033-0.132,0.039-0.049-0.084,0.002c-0.184,0.076-0.392,0.123-0.589,0.146c-0.862,0.102-1.7,0.011-2.462-0.409
					c-0.176-0.097-0.293-0.216-0.509-0.229c-0.089-0.005-0.176,0.013-0.254,0.059c-0.03,0.022-0.059,0.045-0.089,0.068
					c-0.117,0.145-0.088,0.121,0.089-0.068c-0.483,0.208-0.204,0.953,0.067,1.21c0.7,0.664,1.792,0.775,2.714,0.74
					c0.729-0.028,1.848-0.263,2.194-1.002c0.685-1.461-1.718-2.263-2.714-2.525c-0.666-0.176-1.526-0.307-2.078-0.75
					c-0.213-0.172,0.034-0.313,0.184-0.465c0.623-0.634,1.481-0.707,2.195-0.175C205.114,104.283,205.387,103.89,205.187,103.68
					L205.187,103.68z"/>
			</g>
		</g>
		<g>
			<g>
				<path fill="#333333" d="M214.629,104.719c0.129,0.646,0.251,1.284,0.396,1.929c0.133,0.588,0.192,1.374,0.637,1.821
					c0.469,0.472,1.207,0.103,1.243-0.515c0.035-0.6-0.396-1.299-0.624-1.836c-0.278-0.658-0.553-1.222-1.013-1.771
					C215.003,104.027,214.561,104.377,214.629,104.719L214.629,104.719z"/>
			</g>
		</g>
		<g>
			<g>
				<path fill="#333333" d="M213.999,100.875c-0.065-0.004-0.131-0.007-0.196-0.011c-0.298-0.017-0.521,0.21-0.615,0.469
					c-0.287,0.784,0.716,1.094,1.286,0.968c0.313-0.069,0.509-0.503,0.315-0.774c-0.19-0.267-0.476-0.4-0.666-0.534
					c0.107,0.188,0.214,0.374,0.321,0.561c0.01-0.019,0.02-0.036,0.03-0.055C214.575,101.179,214.305,100.892,213.999,100.875
					L213.999,100.875z"/>
			</g>
		</g>
		<g>
			<g>
				<path fill="#333333" d="M219.749,104c-1.187-0.151-2.308-0.387-3.023,0.812c-0.181,0.303-0.049,0.639,0.217,0.829
					c1,0.715,2.29,0.983,3.345,1.62c0.38,0.229,0.734,0.5,0.155,0.658c-0.784,0.214-1.681-0.313-2.344-0.655
					c-0.485-0.25-0.966,0.247-0.727,0.727c0.76,1.527,5.099,1.842,4.629-0.544c-0.349-1.774-3.209-1.999-4.446-2.853
					c0.072,0.276,0.145,0.553,0.217,0.829c0.405-0.705,1.258-0.619,1.977-0.688C220.227,104.688,220.214,104.06,219.749,104
					L219.749,104z"/>
			</g>
		</g>
		<g>
			<g>
				<path fill="#333333" d="M234.856,105.11c1.181,0.821,2.164-0.115,2.209-1.378c0.053-1.497-1.275-2.235-2.508-1.417
					c-1.803,1.196-2.171,3.612-1.374,5.499c0.853,2.018,3.621,2.489,5.068,0.806c0.522-0.608-0.127-1.507-0.862-1.117
					c-1.046,0.557-2.008,1.188-2.874-0.037c-0.77-1.088-0.593-2.555,0.105-3.617c1.503-2.286,1.791,1.205,0.452,0.747
					C234.754,104.486,234.609,104.938,234.856,105.11L234.856,105.11z"/>
			</g>
		</g>
		<g>
			<g>
				<path fill="#333333" d="M242.308,103.782c-0.674-1.864-2.528-0.459-3.256,0.611c-0.748,1.1-0.663,2.642,0.224,3.631
					c0.786,0.876,1.966,1.335,3.127,1.048c1.42-0.351,1.791-1.949,1.698-3.205c-0.557,0.075-1.115,0.15-1.672,0.227
					c0.53,2.084,3.528,3.152,4.813,1.165c0.144-0.222-0.091-0.459-0.317-0.413c-1.016,0.206-2.563-0.068-2.854-1.205
					c-0.235-0.915-1.746-0.745-1.672,0.227c0.09,1.183-0.36,2.057-1.562,1.312c-0.378-0.234-0.621-0.685-0.652-1.119
					c-0.036-0.503,1.085-2.575,1.588-1.966C241.975,104.339,242.414,104.077,242.308,103.782L242.308,103.782z"/>
			</g>
		</g>
		<g>
			<g>
				<path fill="#333333" d="M248.999,103.031c-0.981,0.107-3.687,0.455-2.383,2.081c1.06,1.321,2.923,1.845,3.807,3.342
					c0.08-0.305,0.159-0.608,0.239-0.913c-0.552,0.241-1.167,0.261-1.758,0.231c-0.519-0.026-0.989-0.277-1.51-0.288
					c-0.412-0.008-0.594,0.431-0.438,0.764c0.662,1.407,3.281,0.943,4.38,0.445c0.328-0.148,0.414-0.626,0.239-0.913
					c-0.688-1.134-1.889-1.857-2.956-2.593c-0.414-0.285-0.857-0.57-1.163-0.976c-0.043-0.041-0.056-0.003-0.039,0.116
					c0.037-0.089,0.177-0.15,0.249-0.194c0.424-0.259,0.942-0.349,1.421-0.442C249.457,103.618,249.375,102.99,248.999,103.031
					L248.999,103.031z"/>
			</g>
		</g>
		<g>
			<g>
				<path fill="#333333" d="M253.833,104.951c-1.264,1.478-0.998,3.488,0.94,4.146c2.368,0.804,3.339-1.937,3.187-3.729
					c-0.034-0.394-0.298-0.701-0.711-0.712c-0.083-0.002-0.167-0.004-0.25-0.006c-0.594-0.014-0.827,0.608-0.62,1.08
					c1.508,3.425,5.401,5.335,6.647,8.896c0.948,2.708-2.199,2.383-3.642,1.647c-1.379-0.702-2.176-1.764-3.138-2.904
					c-0.171-0.202-0.528-0.088-0.587,0.155c-0.435,1.783,1.539,3.409,2.879,4.196c1.674,0.981,3.93,1.367,5.439-0.074
					c4.071-3.887-4.925-9.787-6.36-12.641c-0.207,0.36-0.413,0.72-0.62,1.08c0.083-0.002,0.167-0.004,0.25-0.006
					c-0.237-0.237-0.474-0.475-0.711-0.712c0.136,1.048,0.084,2.78-1.433,2.529c-1.336-0.22-1.143-1.78-0.88-2.717
					C254.285,104.963,253.99,104.769,253.833,104.951L253.833,104.951z"/>
			</g>
		</g>
		<g>
			<g>
				<path fill="#333333" d="M262.391,96.076c0.959,1.435,0.998,3.231,1.228,4.892c0.15,1.083,0.248,2.842,1.472,3.222
					c0.304,0.095,0.653-0.108,0.73-0.414c0.164-0.655-0.129-1.06-0.326-1.688c-0.239-0.765-0.399-1.553-0.566-2.336
					c-0.328-1.532-0.801-3.009-1.888-4.178C262.723,95.232,262.128,95.683,262.391,96.076L262.391,96.076z"/>
			</g>
		</g>
		<g>
			<g>
				<path fill="#333333" d="M264.905,108.84c0.686,0.336,1.392,0.151,1.918-0.382c0.95-0.96-0.272-2.585-1.447-1.876
					c-0.342,0.207-0.671,0.482-0.839,0.854C264.319,107.914,264.366,108.575,264.905,108.84L264.905,108.84z"/>
			</g>
		</g>
		<g>
			<g>
				<path fill="#333333" d="M286.999,99.961c1.733,0,1.733-2.688,0-2.688S285.265,99.961,286.999,99.961L286.999,99.961z"/>
			</g>
		</g>
		<g>
			<g>
				<path fill="#333333" d="M290.499,100.367c1.935,0,1.935-3,0-3S288.564,100.367,290.499,100.367L290.499,100.367z"/>
			</g>
		</g>
		<g>
			<g>
				<path fill="#333333" d="M283.971,102.139c-0.938,0.839-0.279,2.525,0.32,3.368c0.814,1.147,2.325,1.416,3.641,1.444
					c2.678,0.06,6.227-1.52,5.704-4.684c-0.248-1.507-2.853-1.158-2.672,0.361c0.149,1.257-1.736,1.688-2.712,1.811
					c-1.889,0.236-2.571-0.615-3.363-2.183C284.711,101.904,284.237,101.901,283.971,102.139L283.971,102.139z"/>
			</g>
		</g>
	</g>
	<g>
		<g>
			<g>
				<path fill="#333333" d="M558.015,174.344c-2.893,0.235-2.938,6.42-3.204,8.518c-0.219,1.734,0.33,3.123,2.02,3.71
					c1.438,0.5,3.778-0.857,3.709-2.423c-0.007-0.159-0.173-0.335-0.346-0.264c-1.008,0.417-3.291,2.763-4.026,0.271
					c-0.304-1.031,0.122-2.36,0.271-3.397c0.277-1.939,0.25-4.471,1.795-5.895C558.417,174.692,558.28,174.323,558.015,174.344
					L558.015,174.344z"/>
			</g>
		</g>
		<g>
			<g>
				<path fill="#333333" d="M553.515,182.165c1.401,0.125,4.147-0.305,4.611-1.916c0.067-0.232-0.119-0.478-0.361-0.475
					c-0.713,0.008-1.402,0.499-2.056,0.758c-0.698,0.278-1.447,0.503-2.194,0.602C552.864,181.219,552.839,182.104,553.515,182.165
					L553.515,182.165z"/>
			</g>
		</g>
		<g>
			<g>
				<path fill="#333333" d="M560.41,175.247c0.479,2.898,0.842,5.707,0.812,8.652c-0.01,0.9,1.321,1.073,1.559,0.211
					c0.409-1.496,0.585-3.041,2.106-3.824c-0.298-0.038-0.596-0.076-0.894-0.115c0.825,1.017,0.939,2.519,1.707,3.599
					c0.411,0.579,1.454,0.872,1.698-0.015c0.037-0.137-0.003-0.286-0.104-0.387c-1.158-1.166-1.23-2.988-2.26-4.24
					c-0.215-0.262-0.62-0.259-0.895-0.115c-1.859,0.969-2.364,2.776-2.893,4.676c0.52,0.07,1.038,0.141,1.558,0.211
					c-0.068-3.058-0.374-6.147-1.726-8.936C560.887,174.561,560.348,174.866,560.41,175.247L560.41,175.247z"/>
			</g>
		</g>
		<g>
			<g>
				<path fill="#333333" d="M568.577,180.899c-0.08,1.033,0.288,2.221,0.707,3.152c0.383,0.854,1.635,0.114,1.255-0.733
					c-0.382-0.85-0.646-1.857-1.146-2.64C569.149,180.297,568.61,180.468,568.577,180.899L568.577,180.899z"/>
			</g>
		</g>
		<g>
			<g>
				<path fill="#333333" d="M568.286,177.757c-0.328,0.159-0.605,0.3-0.605,0.725c0,0.442,0.388,0.761,0.787,0.84
					c0.302,0.061,0.621-0.104,0.656-0.423c0.021-0.189-0.035-0.313-0.148-0.46c-0.051-0.081-0.114-0.15-0.191-0.206
					c-0.251-0.219-0.037,0.416,0.042,0.123c-0.071,0.094-0.144,0.187-0.215,0.279c0.045-0.031,0.089-0.063,0.133-0.095
					C569.216,178.201,568.816,177.5,568.286,177.757L568.286,177.757z"/>
			</g>
		</g>
		<g>
			<g>
				<path fill="#333333" d="M573.508,180.156c-1.128-1.287-3.647-0.171-2.32,1.426c0.531,0.64,1.406,1.063,2.104,1.487
					c0.595,0.362,1.549,0.771,1.866,1.435c0.084-0.32,0.168-0.641,0.252-0.961c-1.111,0.623-2.048,0.46-3.16-0.021
					c-0.646-0.279-1.214,0.412-0.749,0.972c1.091,1.315,3.296,0.987,4.618,0.262c0.356-0.196,0.41-0.622,0.252-0.961
					c-0.447-0.957-1.667-1.529-2.531-2.03c-0.479-0.277-0.979-0.545-1.417-0.884c-0.135-0.104-0.268-0.217-0.354-0.364
					c0.173,0.294,0.702,0.02,1.021,0.18C573.445,180.873,573.769,180.453,573.508,180.156L573.508,180.156z"/>
			</g>
		</g>
		<g>
			<g>
				<path fill="#333333" d="M581.502,181.041c0.247,1.197,0.277,2.505,0.966,3.557c0.542,0.828,1.802,0.103,1.33-0.777
					c-0.549-1.021-0.75-2.179-1.324-3.189C582.164,180.086,581.385,180.466,581.502,181.041L581.502,181.041z"/>
			</g>
		</g>
		<g>
			<g>
				<path fill="#333333" d="M582.203,177.893c-0.016-0.033-0.032-0.065-0.048-0.099c0,0.175,0,0.351,0,0.525
					c0.021-0.038,0.042-0.077,0.063-0.116c-0.332,0.043-0.664,0.086-0.995,0.129c0.346,0.287,1.222,1.258,1.649,0.525
					c0.389-0.664-0.49-1.38-1.033-1.585c-0.581-0.22-1.104,0.665-0.616,1.06c0.073,0.046,0.135,0.104,0.184,0.176
					C581.793,178.979,582.442,178.38,582.203,177.893L582.203,177.893z"/>
			</g>
		</g>
		<g>
			<g>
				<path fill="#333333" d="M587.927,179.873c-0.843-0.608-1.832-0.82-2.771-0.294c-0.921,0.516-0.799,1.62-0.355,2.402
					c0.589,1.04,1.788,1.426,2.728,2.061c0.108,0.076,0.21,0.161,0.303,0.257c0.097,0.174,0.134,0.135,0.112-0.115
					c-0.212,0.265-0.89,0.381-1.199,0.33c-0.646-0.106-1.175-0.568-1.827-0.664c-0.54-0.079-0.979,0.507-0.555,0.953
					c0.738,0.776,2.029,1.208,3.078,0.979c0.897-0.196,1.928-0.696,1.727-1.765c-0.162-0.862-1.455-1.423-2.121-1.785
					c-0.482-0.263-1.622-0.885-1.292-1.582c0.273-0.575,1.507-0.33,1.927-0.192C588.048,180.58,588.203,180.072,587.927,179.873
					L587.927,179.873z"/>
			</g>
		</g>
		<g>
			<g>
				<path fill="#333333" d="M598.468,174.149c0.392,3.402,1.818,6.529,1.831,10c0.003,0.791,1.244,0.999,1.406,0.19
					c0.13-0.646,0.225-1.299,0.335-1.948c0.119-0.699,0.929-3.461,1.729-1.543c0.498,1.197,0.885,3.088,2.495,3.074
					c0.459-0.004,0.69-0.566,0.37-0.894c-1.011-1.032-1.266-2.112-1.884-3.367c-0.338-0.686-1.247-1.263-2.029-1.024
					c-2.068,0.628-2.12,3.567-2.396,5.321c0.469,0.063,0.938,0.127,1.406,0.19c-0.16-3.531-1.521-6.781-2.681-10.079
					C598.946,173.774,598.428,173.797,598.468,174.149L598.468,174.149z"/>
			</g>
		</g>
		<g>
			<g>
				<path fill="#333333" d="M610.371,179.717c-0.682-0.495-1.35-0.907-2.216-0.823c-0.796,0.078-1.446,0.681-1.898,1.296
					c-0.722,0.981-0.433,2.315,0.279,3.2c0.627,0.778,1.69,1.446,2.729,1.23c1.271-0.264,1.393-1.607,1.207-2.667
					c-0.446,0.188-0.895,0.377-1.342,0.565c0.685,0.96,1.908,2.19,3.209,1.651c0.201-0.084,0.271-0.297,0.124-0.471
					c-0.616-0.727-1.509-1.104-2.064-1.921c-0.488-0.718-1.467-0.249-1.343,0.565c0.047,0.303,0.142,0.8-0.193,0.8
					c-0.446,0.001-0.896-0.408-1.178-0.712c-1.322-1.435,1.126-3.019,2.474-2.352C610.405,180.204,610.59,179.875,610.371,179.717
					L610.371,179.717z"/>
			</g>
		</g>
		<g>
			<g>
				<path fill="#333333" d="M612.751,180.721c0.26,1.282,1.197,2.315,1.744,3.481c0.346-0.202,0.692-0.405,1.039-0.607
					c-0.396-0.64-0.729-1.368-0.769-2.13c-0.045-0.923,0.844-0.644,1.41-1.04c0.129-0.09,0.228-0.291,0.114-0.438
					c-0.81-1.059-2.387-0.397-2.765,0.699c-0.393,1.134,0.351,2.606,0.969,3.517c0.431,0.636,1.438,0.068,1.039-0.607
					c-0.646-1.095-1.558-2.04-2.283-3.084C613.072,180.254,612.688,180.412,612.751,180.721L612.751,180.721z"/>
			</g>
		</g>
		<g>
			<g>
				<path fill="#333333" d="M620.241,180.649c0.003-1.015-1.315-0.602-1.779-0.175c-1.289,1.187-1.572,3.039-0.187,4.275
					c1.287,1.15,2.964-0.16,3.641-1.302c1.313-2.215,0.376-5.159,0.04-7.489c-0.122-0.843-1.359-0.568-1.408,0.19
					c-0.126,1.945,0.561,3.944,1.576,5.58c0.801,1.291,2.722,3.068,4.307,1.953c0.18-0.126,0.245-0.456,0-0.566
					c-1.417-0.637-2.402-1.015-3.271-2.415c-0.816-1.315-1.283-3.005-1.177-4.552c-0.471,0.063-0.938,0.127-1.408,0.19
					c0.275,1.971,0.854,3.903,0.237,5.866c-0.063,0.365-0.216,0.688-0.462,0.966c-0.576,0.731-1.575,0.397-1.608-0.535
					c-0.007-0.188,0.75-2.121,1.114-1.827C620.002,180.928,620.24,180.862,620.241,180.649L620.241,180.649z"/>
			</g>
		</g>
		<g>
			<g>
				<path fill="#333333" d="M631.765,180.727c-1.555-0.164-1.379,2.578-1.029,3.412c0.968,2.313,3.165,0.759,4.199-0.57
					c-0.239,0.031-0.479,0.063-0.72,0.094c1.277,0.969,4.336,2.271,5.747,0.88c1.909-1.883-0.49-4.872-2.826-4.11
					c-0.487,0.159-0.431,0.755,0,0.934c0.862,0.358,2.104,0.223,2.257,1.533c0.102,0.857-0.737,0.962-1.357,0.947
					c-1.107-0.026-2.336-0.568-3.22-1.211c-0.283-0.205-0.636-0.024-0.813,0.214c-0.744,0.997-1.96,2.127-2.428,0.363
					c-0.22-0.833-0.023-1.493,0.34-2.227C631.975,180.862,631.896,180.741,631.765,180.727L631.765,180.727z"/>
			</g>
		</g>
		<g>
			<g>
				<path fill="#333333" d="M643.217,181.031c-0.883-1.668-2.65,0.479-2.956,1.473c-0.354,1.152,0.093,2.439,1.324,2.739
					c2.177,0.53,4.906-2.27,2.289-3.708c-0.12,0.441-0.239,0.884-0.359,1.326c1.072,0.089,1.856,0.757,2.415,1.63
					c0.391-0.228,0.78-0.456,1.17-0.684c-0.796-1.224-0.396-2.421,1.165-2.268c0.725,0.071,0.868-1.104,0.17-1.259
					c-2.767-0.613-3.629,2.114-2.505,4.21c0.414,0.771,1.576,0.088,1.17-0.684c-0.73-1.386-2.033-2.232-3.585-2.37
					c-0.721-0.063-0.951,0.997-0.358,1.326c0.887,0.494-0.172,0.923-0.76,1.073c-1.759,0.452-0.404-2.938,0.5-2.485
					C643.106,181.457,643.33,181.245,643.217,181.031L643.217,181.031z"/>
			</g>
		</g>
		<g>
			<g>
				<path fill="#333333" d="M665.265,178.055c1.491,0,1.491-2.313,0-2.313C663.774,175.742,663.773,178.055,665.265,178.055
					L665.265,178.055z"/>
			</g>
		</g>
		<g>
			<g>
				<path fill="#333333" d="M668.265,177.368c1.572,0,1.572-2.438,0-2.438C666.693,174.93,666.692,177.368,668.265,177.368
					L668.265,177.368z"/>
			</g>
		</g>
		<g>
			<g>
				<path fill="#333333" d="M666.014,183.081c-0.462-1.177,0.861-1.935,1.818-2.173c0.604-0.151,1.276-0.125,1.831,0.169
					c0.802,0.424,0.791,1.294,1.083,2.034c0.25,0.633,1.417,0.875,1.537,0c0.369-2.688-2.314-4.387-4.712-3.788
					c-1.648,0.412-3.889,2.483-1.989,4.009C665.759,183.473,666.118,183.348,666.014,183.081L666.014,183.081z"/>
			</g>
		</g>
		<g>
			<g>
				<path fill="#333333" d="M649.292,176.019c-0.718,1,0.705,3.713,1.073,4.647c0.278,0.707,1.081,3.918,2.233,3.541
					c0.176-0.057,0.261-0.217,0.225-0.394c0.078,0.385,0.079,0.017,0.085-0.14c0.009-0.289-0.111-0.488-0.236-0.74
					c-0.421-0.843-0.784-1.718-1.146-2.588c-0.536-1.29-1.57-2.886-1.764-4.266C649.729,175.833,649.404,175.863,649.292,176.019
					L649.292,176.019z"/>
			</g>
		</g>
		<g>
			<g>
				<path fill="#333333" d="M653.674,178.244c-1.576,0.75-1.966,2.777-2.056,4.405c-0.019,0.308,0.215,0.521,0.475,0.624
					c1.516,0.599,2.912,1.611,4.5,2.001c0.691,0.17,1.182-0.853,0.499-1.185c-1.51-0.736-3.057-1.539-4.655-2.064
					c0.158,0.208,0.316,0.416,0.476,0.624c-0.006-1.31,0.277-3.034,1.009-4.159C654.025,178.327,653.825,178.172,653.674,178.244
					L653.674,178.244z"/>
			</g>
		</g>
	</g>
	<g>
		<g>
			<path fill="#333333" d="M154.759,121.566c1.388,3.702,6.428,3.634,9.741,3.751c4.591,0.162,9.667-1.145,11.851-5.613
				c0.186-0.379-0.183-0.729-0.556-0.556c-3.292,1.522-5.156,3.866-8.985,4.377c-3.244,0.434-9.579,1.08-11.594-2.153
				C155.071,121.142,154.656,121.292,154.759,121.566L154.759,121.566z"/>
		</g>
	</g>
	<g>
		<g>
			<path fill="#333333" d="M579.373,216.72c3.053,4.466,13.166-10.775,11.241-14.726c-0.396-0.812-1.599-0.539-1.827,0.239
				c-0.795,2.684-1.339,5.123-2.678,7.687c-0.85,1.622-3.652,7.336-6.139,6.201C579.611,215.958,579.101,216.322,579.373,216.72
				L579.373,216.72z"/>
		</g>
	</g>
	<g>
		<g>
			<g>
				<path fill="#1C758A" d="M119.939,356.398c0.204,4.875,2.136,9.912,1.361,14.814c-0.161,1.016,1.16,1.727,1.739,0.732
					c1.165-1.998,0.159-5.499-0.188-7.616c-0.422-2.569-0.752-5.851-2.038-8.168C120.59,355.761,119.92,355.931,119.939,356.398
					L119.939,356.398z"/>
			</g>
		</g>
		<g>
			<g>
				<path fill="#1C758A" d="M113.662,355.916c0.248-1.158,9.812-0.735,10.625-0.675c2.063,0.153,7.179,2.3,3.956,4.528
					c-0.922,0.64-2.724,1.321-3.85,0.854c-0.372-0.153-0.875,0.163-0.951,0.54c-0.743,3.687,10.633,1.479,8.217-4.096
					c-1.782-4.109-7.052-4.355-10.862-4.074c-1.958,0.144-6.96,0.438-8.02,2.4c-0.114,0.212-0.073,0.43,0.078,0.605
					c0.029,0.035,0.059,0.069,0.088,0.104C113.149,356.347,113.596,356.22,113.662,355.916L113.662,355.916z"/>
			</g>
		</g>
		<g>
			<g>
				<path fill="#1C758A" d="M134.178,365.106c-1.206-1.298-2.932-0.398-4.056,0.527c-1.274,1.05-2.053,3.033-1.869,4.661
					c0.199,1.758,1.682,2.352,3.256,1.973c1.813-0.435,2.546-2.995,3.042-4.507c-0.553-0.075-1.106-0.148-1.659-0.225
					c0.164,2.425,3.034,5.673,5.13,2.883c0.326-0.434-0.208-0.98-0.662-0.861c-1.607,0.427-2.674-0.295-2.779-2.021
					c-0.058-0.959-1.352-1.141-1.659-0.225c-0.249,0.739-0.509,1.461-0.868,2.155c-0.518,1.005-2.102,1.946-2.138,0.174
					c-0.039-1.927,1.958-4.286,3.927-3.962C134.175,365.735,134.427,365.374,134.178,365.106L134.178,365.106z"/>
			</g>
		</g>
		<g>
			<g>
				<path fill="#1C758A" d="M142.128,365.343c-1.272-0.967-3.317,0.084-3.199,1.709c0.103,1.417,1.869,1.983,2.982,2.363
					c0.581,0.198,1.321,0.383,1.714,0.896c0.239,0.313-0.25,0.574-0.607,0.762c-1.167,0.606-2.429,0.301-3.425-0.446
					c-0.419-0.315-0.958,0.201-0.837,0.644c0.703,2.57,5.214,1.955,6.296,0.004c0.767-1.385-0.67-2.502-1.776-3.011
					c-0.618-0.284-1.299-0.425-1.935-0.664c-0.308-0.115-0.615-0.279-0.859-0.501c-0.646-0.585,0.874-1.018,1.284-0.897
					C142.316,366.358,142.526,365.645,142.128,365.343L142.128,365.343z"/>
			</g>
		</g>
		<g>
			<g>
				<path fill="#1C758A" d="M147.967,365.555c-1.141-0.157-3.534-0.454-3.183,1.483c0.247,1.363,2.137,1.938,3.235,2.383
					c0.719,0.29,2.938,1.505,1.358,2.152c-1.225,0.502-2.568,0.167-3.673-0.456c-0.352-0.198-0.783,0.126-0.677,0.521
					c0.627,2.326,5.69,2.053,6.243-0.25c0.342-1.425-1.217-2.563-2.337-3.02c-0.814-0.333-1.639-0.623-2.393-1.084
					c-1.367-0.836,0.667-0.884,1.318-0.933C148.286,366.321,148.448,365.621,147.967,365.555L147.967,365.555z"/>
			</g>
		</g>
		<g>
			<g>
				<path fill="#1C758A" d="M151.447,367.766c0.005,0.012,0.01,0.021,0.016,0.032c0-0.155,0-0.311,0-0.466
					c-0.38,0.563,0.094,1.726,0.271,2.313c0.227,0.761,0.547,1.532,0.69,2.313c0.123,0.673,0.991,0.942,1.534,0.624
					c0.729-0.427,0.613-1.354,0-1.803c-0.006-0.005-0.011-0.01-0.017-0.014c-0.262-0.191-0.76-0.191-1.021,0
					c-0.005,0.004-0.011,0.009-0.017,0.014c-0.534,0.392-0.725,1.126-0.211,1.64c0.518,0.519,1.601,0.333,1.745-0.461
					c0.181-0.99-0.421-2.034-0.852-2.897c-0.226-0.452-0.485-0.865-0.773-1.28c-0.099-0.143-0.199-0.314-0.321-0.438
					c-0.105-0.104-0.773-0.481-0.333-0.126C151.759,366.894,151.212,367.288,151.447,367.766L151.447,367.766z"/>
			</g>
		</g>
		<g>
			<g>
				<path fill="#1C758A" d="M152.026,363.57c-0.081-0.069-0.141-0.153-0.18-0.251c-0.194,0.255-0.388,0.51-0.582,0.765
					c-0.199,0.021,0.094,0.009,0.176,0.017c-0.247-0.247-0.493-0.492-0.74-0.739c0,0.008,0,0.015,0,0.021
					c-0.006,0.26,0.146,0.511,0.367,0.642c-0.086-0.042-0.075-0.023,0.035,0.057c0.155,0.138,0.396,0.241,0.605,0.16
					c0.397-0.154,0.434-0.405,0.441-0.797c-0.068,0.164-0.136,0.328-0.204,0.49c0.2-0.253,0.263-0.447,0.209-0.771
					c-0.05-0.3-0.414-0.572-0.713-0.544c-0.113,0.011-0.226,0.028-0.339,0.046c-0.66,0.104-0.644,1.014-0.172,1.316
					c0.077,0.049,0.234,0.278,0.323,0.36C151.772,364.824,152.498,364.094,152.026,363.57L152.026,363.57z"/>
			</g>
		</g>
		<g>
			<g>
				<path fill="#1C758A" d="M156.175,366.024c-0.286,1.008,0.303,2.16,0.727,3.049c0.515,1.078,1.234,2.206,2.167,2.97
					c0.583,0.477,1.488,0.344,1.714-0.453c0.286-1.009,0.244-2.012,0.141-3.045c-0.123-1.24-0.01-2.365,0.007-3.594
					c0.014-1.007-1.229-1.18-1.747-0.475c-1.34,1.827,0.041,4.509-0.378,6.567c0.502-0.204,1.004-0.408,1.506-0.613
					c-1.523-0.979-2.585-2.779-3.263-4.406C156.886,365.633,156.308,365.555,156.175,366.024L156.175,366.024z"/>
			</g>
		</g>
		<g>
			<g>
				<path fill="#1C758A" d="M164.503,369.196c1.372,1.33,3.359,0.591,3.859-1.188c0.606-2.153-1.655-3.444-3.486-2.573
					c-2.332,1.111-2.456,4.042-1.003,5.906c1.31,1.682,5.486,2.311,6.332-0.041c0.229-0.636-0.52-0.987-1.01-0.775
					c-0.955,0.413-2.466,0.448-3.535-0.136c-0.94-0.514-1.197-2.053-0.543-2.874c0.38-0.478,1.574-0.954,1.522-0.013
					c-0.05,0.917-1.022,1.215-1.771,1.066C164.516,368.499,164.218,368.919,164.503,369.196L164.503,369.196z"/>
			</g>
		</g>
		<g>
			<g>
				<path fill="#333333" d="M182.215,359.267c-0.188-0.04-0.376-0.079-0.564-0.118c-0.058,0.429-0.115,0.857-0.174,1.286
					c2.145,0.108,4.243-0.591,6.188-1.448c2.26-0.996,5.296-1.725,7.083-3.438c0.381-0.367,0.242-1.188-0.338-1.278
					c-1.979-0.307-3.744,0.837-5.479,1.699c-2.505,1.245-4.963,2.33-7.629,3.181c-0.809,0.257-0.478,1.438,0.348,1.264
					c0.188-0.039,0.376-0.079,0.564-0.119C182.724,360.184,182.724,359.375,182.215,359.267L182.215,359.267z"/>
			</g>
		</g>
		<g>
			<g>
				<path fill="#333333" d="M186.458,359.779c-0.116,1.985,0.089,4.006,0.162,5.995c0.066,1.819-0.142,3.678,0.307,5.451
					c0.278,1.101,1.959,1.111,2.23,0c0.436-1.786,0.17-3.636,0.013-5.451c-0.181-2.082-0.435-4.24-1.166-6.204
					C187.695,358.739,186.511,358.866,186.458,359.779L186.458,359.779z"/>
			</g>
		</g>
		<g>
			<g>
				<path fill="#333333" d="M191.932,366.145c0.092,0.821,0.236,1.579,0.517,2.36c0.3,0.835,0.694,1.712,0.621,2.613
					c0.706-0.191,1.413-0.383,2.12-0.574c-0.552-1.2-0.782-2.682-0.415-3.965c0.122-0.427,0.549-0.677,0.905-0.886
					c0.126-0.074,0.255-0.124,0.402-0.128c-0.25-0.138-0.272-0.117-0.065,0.059c0.109,0.096,0.228,0.18,0.354,0.251
					c0.419,0.259,0.884,0.061,1.148-0.301c0.714-0.978-0.091-2.149-1.109-2.427c-1.07-0.291-2.229,0.513-2.993,1.159
					c-2.021,1.713-1.394,5.397-0.191,7.386c0.645,1.066,2.573,0.354,2.08-0.877c-0.313-0.783-0.593-1.544-1.004-2.285
					c-0.463-0.836-1.051-1.629-1.416-2.516C192.695,365.559,191.866,365.552,191.932,366.145L191.932,366.145z"/>
			</g>
		</g>
		<g>
			<g>
				<path fill="#333333" d="M205.388,366.344c-0.033-1.968-3.115-2.675-4.545-1.668c-1.744,1.229-2.52,3.6-2.423,5.672
					c0.098,2.097,1.804,3.604,3.888,2.792c1.938-0.755,4.105-3.225,4.034-5.401c-0.031-0.943-1.341-1.706-2.037-0.845
					c-1.708,2.118-0.25,5.148,2.386,5.609c0.688,0.121,1.528-0.268,1.335-1.058c-0.219-0.9-2.991-1.77-2.033-2.864
					c-0.665-0.387-1.329-0.774-1.994-1.161c-0.195,1.07-0.754,1.861-1.517,2.624c-0.691,0.691-1.457,1.256-1.509,0.008
					c-0.035-0.862,0.214-1.787,0.551-2.574c0.426-0.997,2.229-1.819,3.116-0.823C204.896,366.942,205.394,366.713,205.388,366.344
					L205.388,366.344z"/>
			</g>
		</g>
		<g>
			<g>
				<path fill="#333333" d="M209.173,366.741c0.248,1.984,0.746,3.938,1.261,5.868c0.31,1.165,1.771,0.964,2.16,0
					c0.693-1.716,0.386-4.585,2.044-5.742c-0.431-0.057-0.861-0.111-1.292-0.167c1.734,1.688,0.676,5.398,3.105,6.551
					c0.693,0.329,1.415-0.201,1.26-0.969c-0.246-1.215-0.781-2.405-1.112-3.607c-0.353-1.281-0.792-2.521-1.745-3.481
					c-0.321-0.323-0.898-0.433-1.292-0.167c-2.365,1.593-2.319,4.521-3.128,6.987c0.72,0,1.44,0,2.16,0
					c-0.646-1.902-1.395-3.803-2.396-5.55C209.944,366.021,209.102,366.177,209.173,366.741L209.173,366.741z"/>
			</g>
		</g>
		<g>
			<g>
				<path fill="#333333" d="M223.718,366.612c-0.667-1.74-3.229-1.604-4.601-0.909c-1.626,0.822-0.823,2.398,0.442,3.017
					c1.382,0.673,2.917,0.859,4.265,1.617c0.239,0.135,0.454,0.285,0.649,0.479c0.108,0.105,0.106,0.201,0.095,0.07
					c0.001,0.002,0.041-0.059,0.007-0.019c-0.125,0.146-0.216,0.192-0.455,0.321c-0.774,0.415-1.953,0.439-2.767,0.266
					c-0.45-0.096-0.747-0.272-1.029-0.488c0.053,0.04-0.25-0.252-0.393-0.323c-0.2-0.101-0.462-0.217-0.678-0.094
					c-1.331,0.761-0.059,2.285,0.896,2.655c1.07,0.415,2.302,0.341,3.405,0.113c0.996-0.205,2.067-0.645,2.653-1.513
					c0.716-1.061-0.114-2.241-0.979-2.866c-1.268-0.916-2.798-1.292-4.262-1.767c-0.29-0.094-0.567-0.202-0.837-0.346
					c-0.126-0.066-0.108-0.053-0.199-0.145c0.188,0.188-0.124,0.813,0.135,0.643c0.672-0.44,2.178-0.902,2.842-0.241
					C223.23,367.406,223.898,367.084,223.718,366.612L223.718,366.612z"/>
			</g>
		</g>
		<g>
			<g>
				<path fill="#333333" d="M229.059,366.783c-0.998,1.242-0.633,2.945-0.495,4.434c0.253,2.729,0.066,5.699,0.766,8.354
					c0.341,1.294,2.084,0.904,2.2-0.298c0.038-0.4-0.132-0.651-0.367-0.951c-0.175-0.225-0.509-0.252-0.762-0.201
					c-0.1,0.013-0.195,0.037-0.289,0.072c0.473,0.359,0.945,0.72,1.418,1.08c0.183-1.999-0.264-4.157-0.594-6.137
					c-0.321-1.926-1.094-4.051-1.017-5.998C229.935,366.727,229.338,366.438,229.059,366.783L229.059,366.783z"/>
			</g>
		</g>
		<g>
			<g>
				<path fill="#333333" d="M228.681,368.406c-0.447-1.495,3.374-1.354,4.043-1.179c1.27,0.332,2.609,1.547,3.113,2.758
					c0.579,1.39-1.339,1.792-2.316,1.833c-0.829,0.035-1.979-1.245-2.574-0.229c-0.81,1.381,1.393,2.234,2.361,2.314
					c3.21,0.266,5.919-2.48,4.013-5.519c-1.292-2.059-3.647-3.485-6.097-3.326c-1.884,0.122-4.543,1.546-3.412,3.712
					C228.063,369.253,228.834,368.919,228.681,368.406L228.681,368.406z"/>
			</g>
		</g>
		<g>
			<g>
				<path fill="#333333" d="M242.167,367.982c-0.006-0.035-0.011-0.07-0.017-0.105c0.67-0.21,0.789-1.333,0-1.475
					c-2.278-0.409-4.052,1.728-3.797,3.901c0.287,2.462,2.857,4.016,5.225,3.626c1.784-0.293,3.077-1.968,2.934-3.768
					c-0.144-1.799-2.54-3.947-4.297-2.592c-0.308,0.236-0.483,0.721-0.133,1.024c0.662,0.574,1.76,0.629,1.985,1.59
					c0.117,0.5-0.165,1.131-0.782,1.326c-0.964,0.308-2.26-0.384-2.555-1.326c-0.37-1.184,0.747-1.897,1.603-2.387
					c-0.349-0.091-0.697-0.183-1.046-0.273c-0.002,0.027-0.005,0.056-0.007,0.083C241.154,368.121,241.945,368.504,242.167,367.982
					L242.167,367.982z"/>
			</g>
		</g>
		<g>
			<g>
				<path fill="#333333" d="M247.202,368.476c0.551,1.416,1.371,2.865,1.28,4.434c0.67-0.091,1.34-0.183,2.011-0.272
					c-0.233-1.194-0.827-2.572-0.291-3.754c0.427-0.938,1.321-0.731,2.064-0.379c0.653,0.311,1.647-0.207,1.345-1.034
					c-0.706-1.933-3.224-2.079-4.623-0.748c-1.837,1.747-1.284,4.352-0.47,6.46c0.468,1.209,2.42,0.714,1.975-0.545
					c-0.586-1.654-1.531-3.015-2.319-4.569C247.904,367.533,246.983,367.911,247.202,368.476L247.202,368.476z"/>
			</g>
		</g>
		<g>
			<g>
				<path fill="#333333" d="M255.749,361.214c0.966,0.202,1.381,5.91,1.494,6.702c0.299,2.091,0.369,4.297,0.913,6.343
					c0.524,1.972,3.558,0.521,2.454-1.034c-0.244-0.318-0.467-0.652-0.668-1.001c-0.228-0.366-0.755-0.366-0.982,0
					c-0.201,0.349-0.424,0.683-0.668,1.001c0.817,0.107,1.636,0.215,2.454,0.321c-0.649-1.99-1.673-14.098-4.997-13.213
					C255.326,360.445,255.297,361.119,255.749,361.214L255.749,361.214z"/>
			</g>
		</g>
		<g>
			<g>
				<path fill="#333333" d="M255.075,366.163c-0.074-0.02-0.149-0.038-0.224-0.057c-0.615-0.204-1.135,0.668-0.641,1.101
					c2.509,2.194,7.773,1.728,10.5,0.217c1.252-0.695,0.379-2.538-0.944-2.239c-1.542,0.351-3.058,0.903-4.634,1.064
					c-1.523,0.156-2.944-0.009-4.456-0.166c0.059,0.431,0.116,0.862,0.175,1.293c0.074-0.019,0.149-0.038,0.224-0.057
					C255.819,367.253,255.819,366.229,255.075,366.163L255.075,366.163z"/>
			</g>
		</g>
	</g>
	<g>
		<g>
			<g>
				<path fill="#CF5044" d="M501.582,373.846c0.043,0.029-2.665,10.173-2.828,10.997c0.504,0.067,1.008,0.136,1.512,0.204
					c0.167-2.394,0.868-4.7,1.075-7.089c0.203-2.331-0.141-5.311,1.696-7.074c-0.365,0-0.732,0-1.098,0
					c2.715,2.864,4.327,6.987,7.409,9.48c1.842,1.49,3.289,3.446,5.114,4.924c0.414,0.336,1.251,0.181,1.188-0.491
					c-0.185-1.901-3.107-3.841-4.394-5.04c-3.183-2.969-5.248-6.81-8.221-9.971c-0.295-0.314-0.799-0.285-1.098,0
					c-1.457,1.385-1.758,3.259-1.982,5.182c-0.393,3.332-1.091,6.734-1.23,10.079c-0.034,0.856,1.366,1.066,1.513,0.204
					c0.469-2.791,1.298-5.629,1.606-8.432c0.12-1.089,0.64-2.185,0.347-3.286c-0.028-0.104-0.126-0.222-0.238-0.238
					c-0.044-0.007-0.087-0.014-0.13-0.021C501.479,373.223,501.274,373.639,501.582,373.846L501.582,373.846z"/>
			</g>
		</g>
		<g>
			<g>
				<path fill="#CF5044" d="M502.987,380.262c-0.149-0.008-0.3-0.016-0.449-0.023c-0.239,0.312-0.479,0.623-0.718,0.935
					c1.475,0.275,2.967,0.196,4.461,0.167c1.328-0.024,2.843,0.222,4.011-0.478c0.411-0.245,0.42-0.862,0-1.105
					c-1.196-0.694-2.675-0.355-4.011-0.257c-1.488,0.111-2.996,0.151-4.461,0.446c-1.046,0.211-0.043,1.982,0.718,0.935
					c0.148-0.009,0.3-0.017,0.449-0.023C503.37,380.828,503.37,380.289,502.987,380.262L502.987,380.262z"/>
			</g>
		</g>
		<g>
			<g>
				<path fill="#CF5044" d="M523.057,378.813c0.021,0.325-0.025,0.642-0.137,0.948c0.368,0.101,0.736,0.199,1.104,0.299
					c0.233-1.944-1.343-4.479-3.593-3.781c-1.957,0.604-2.062,3.921-1.828,5.508c0.684,4.677,6.495,3.823,9.236,1.436
					c0.695-0.604-0.037-1.918-0.919-1.579c-1.528,0.586-4.165,2.615-5.836,1.321c-0.981-0.761-0.835-2.589-0.666-3.669
					c0.07-0.446,0.216-1.245,0.705-1.432c1.088-0.414,1.604,1.687,1.736,2.354c0.159,0.804,1.482,0.358,1.083-0.456
					c-0.11-0.308-0.156-0.623-0.138-0.948C523.792,378.329,523.071,378.329,523.057,378.813L523.057,378.813z"/>
			</g>
		</g>
		<g>
			<g>
				<path fill="#CF5044" d="M526.641,371.333c-0.271,2.172,0.694,4.315,1.617,6.231c0.963,1.997,1.464,4.369,2.604,6.252
					c0.572,0.947,2.286,0.315,1.849-0.779c-0.569-1.424-0.895-3.17-1.674-4.484c-1.407-2.373-2.677-4.67-3.353-7.36
					C527.526,370.563,526.71,370.777,526.641,371.333L526.641,371.333z"/>
			</g>
		</g>
		<g>
			<g>
				<path fill="#CF5044" d="M526.125,378.515c-0.172,0.209-0.288,0.22-0.435,0.516c-0.161,0.324-0.03,0.717,0.335,0.821
					c1.359,0.396,2.669,0.104,3.998-0.295c1.313-0.395,3.183-0.961,4.134-1.984c0.195-0.211,0.095-0.504-0.158-0.602
					c-1.17-0.445-2.406,0.196-3.487,0.646c-1.427,0.594-2.768,1.135-4.338,1.134c0.188,0.188,0.373,0.374,0.562,0.562
					c-0.005-0.099,0.059-0.231,0.097-0.388C526.922,378.544,526.41,378.169,526.125,378.515L526.125,378.515z"/>
			</g>
		</g>
		<g>
			<g>
				<path fill="#CF5044" d="M536.354,377.983c-0.304,0.919-0.306,1.74-0.06,2.688c0.198,0.767,0.703,1.829,1.632,1.807
					c0.659-0.016,0.896-0.749,0.505-1.218c-0.365-0.438-0.699-0.745-0.952-1.285c-0.25-0.531-0.531-1.319-0.526-1.91
					C536.954,377.71,536.458,377.663,536.354,377.983L536.354,377.983z"/>
			</g>
		</g>
		<g>
			<g>
				<path fill="#CF5044" d="M534.641,373.74c0.58,0.254,1.215-0.065,0.999-0.77c-0.128-0.418-0.611-0.634-0.999-0.405
					C534.238,372.801,534.156,373.528,534.641,373.74L534.641,373.74z"/>
			</g>
		</g>
		<g>
			<g>
				<path fill="#CF5044" d="M540.698,376.699c-0.325,0.853,0.381,1.888,0.791,2.587c0.709,1.209,1.536,2.387,2.474,3.43
					c0.434,0.48,1.143,0.276,1.471-0.188c0.836-1.186,1.119-2.56,1.32-3.973c0.191-1.339,0.538-3.029-0.113-4.283
					c-0.167-0.321-0.705-0.417-0.944-0.122c-0.736,0.906-0.747,2.141-0.845,3.265c-0.121,1.399-0.312,2.936-1.034,4.168
					c0.489-0.063,0.979-0.126,1.471-0.189c-0.715-0.68-1.37-1.426-2.007-2.178c-0.438-0.518-1.636-1.701-1.692-2.395
					C541.545,376.298,540.882,376.217,540.698,376.699L540.698,376.699z"/>
			</g>
		</g>
		<g>
			<g>
				<path fill="#CF5044" d="M551.351,379.74c-0.297,1.762,4.394,1.081,3.97-1.541c-0.188-1.159-1.546-1.903-2.585-2.056
					c-1.372-0.198-2.526,0.508-3.281,1.605c-1.454,2.117-0.553,5.812,1.732,6.955c1.571,0.786,7.906,0.346,7.361-2.348
					c-0.062-0.306-0.401-0.558-0.708-0.539c-0.611,0.033-0.832,0.352-1.312,0.679c-0.691,0.473-1.637,0.635-2.451,0.722
					c-1.64,0.173-2.831-0.014-3.425-1.703c-0.454-1.292-0.286-3.28,1.21-3.798c0.688-0.238,1.528,0.077,1.936,0.661
					c0.535,0.771-1.62,1.589-2.004,1.244C551.66,379.502,551.386,379.529,551.351,379.74L551.351,379.74z"/>
			</g>
		</g>
		<g>
			<g>
				<path fill="#333333" d="M579.387,370.263c0.638,1.558,4.217,0.079,5.476-0.342c2.95-0.985,6.714-1.832,9.237-3.704
					c0.665-0.493,0.653-1.558-0.236-1.813c-2.264-0.649-5.094,1.132-7.113,1.951c-1.428,0.577-2.847,1.221-4.24,1.877
					c-0.601,0.282-1.202,0.579-1.791,0.889c-1.091,0.573-0.57-0.002-0.112,0.63C580.197,369.188,579.08,369.513,579.387,370.263
					L579.387,370.263z"/>
			</g>
		</g>
		<g>
			<g>
				<path fill="#333333" d="M588.085,369.679c-0.177-0.512-0.146-0.791-0.628-1.102c-0.441-0.285-1.209-0.029-1.296,0.526
					c-0.397,2.553,0.552,4.883,0.651,7.418c0.096,2.375,0.277,4.681,1.25,6.873c1.122,2.533,4.875-1.034,2.283-2.283
					c-0.687-0.33-0.999-0.33-1.686,0c0.816,0.332,1.635,0.665,2.452,0.998c-0.833-2.028-0.979-4.18-1.246-6.335
					c-0.285-2.3-1.393-4.44-2.005-6.671c-0.137,0.332-0.271,0.664-0.405,0.996c0.113-0.072,0.219-0.156,0.324-0.24
					c-0.348,0-0.694,0-1.041,0c0.085,0.093,0.17,0.186,0.255,0.277C587.354,370.672,588.316,370.35,588.085,369.679L588.085,369.679
					z"/>
			</g>
		</g>
		<g>
			<g>
				<path fill="#333333" d="M592.93,376.975c0.273,1.915,1.166,3.629,1.893,5.4c0.735-0.311,1.474-0.621,2.211-0.932
					c-0.545-0.981-0.486-2.332-0.228-3.387c0.089-0.357,0.24-0.889,0.56-1.112c0.234-0.166,0.995,0.224,1.406,0.205
					c0.624-0.028,1.164-0.618,0.961-1.262c-0.366-1.162-1.616-1.657-2.756-1.464c-1.021,0.174-1.771,0.984-2.212,1.877
					c-0.92,1.868-1.027,4.598,0.179,6.362c0.871,1.274,2.938,0.104,2.09-1.221c-0.991-1.552-2.563-2.928-2.977-4.779
					C593.889,375.911,592.826,376.251,592.93,376.975L592.93,376.975z"/>
			</g>
		</g>
		<g>
			<g>
				<path fill="#333333" d="M607.113,377.409c-1.455-1.285-3.485-2.027-5.162-0.625c-1.384,1.156-2.199,3.104-1.835,4.908
					c0.374,1.857,2.101,2.88,3.909,2.228c1.737-0.626,2.607-2.518,3.447-4.016c-0.729-0.197-1.46-0.396-2.188-0.594
					c0.042,1.313,0.211,2.548,1.101,3.566c0.811,0.927,2.516,1.096,3.422,0.28c0.205-0.185,0.186-0.524,0-0.711
					c-0.478-0.483-1.135-0.615-1.679-1.012c-0.598-0.433-0.497-1.487-0.494-2.125c0.007-1.188-1.587-1.578-2.188-0.593
					c-0.271,0.441-2.657,4.184-2.85,2.335c-0.09-0.867,0.293-1.564,0.813-2.21c0.752-0.931,2.119-0.652,3.146-0.478
					C607.07,378.455,607.584,377.825,607.113,377.409L607.113,377.409z"/>
			</g>
		</g>
		<g>
			<g>
				<path fill="#333333" d="M610.996,378.289c0.533,0.184,0.755,1.943,0.864,2.461c0.204,0.964,0.305,1.948,0.531,2.908
					c0.329,1.386,2.166,1.173,2.593,0c0.3-0.824,0.349-1.71,0.39-2.58c0.039-0.833-0.091-2.122,0.729-2.616
					c-0.604-0.158-1.209-0.317-1.813-0.476c1.201,1.671,1.07,5.459,3.498,5.95c0.94,0.191,1.631-0.705,1.205-1.565
					c-0.896-1.804-1.25-4.083-2.414-5.723c-0.415-0.586-1.151-0.869-1.813-0.477c-2.605,1.548-1.499,4.4-2.374,6.771
					c0.864,0,1.729,0,2.593,0c-0.753-1.935-1.128-5.565-3.591-6.099C610.447,376.642,610.086,377.975,610.996,378.289
					L610.996,378.289z"/>
			</g>
		</g>
		<g>
			<g>
				<path fill="#333333" d="M623.23,378.145c0.071-0.169,0.21-0.306,0.291-0.472c0.142-0.283,0.129-0.621-0.109-0.853
					c-0.828-0.808-1.631-1.305-2.811-0.947c-0.979,0.295-1.624,1.166-1.485,2.18c0.237,1.747,2.749,2.467,3.994,3.322
					c0.296,0.203,0.596,0.461,0.791,0.765c0.082,0.127-0.022-0.105,0.137-0.298c-0.14,0.168-0.706,0.305-1.188,0.334
					c-0.674,0.043-1.314-0.064-1.945-0.3c-0.738-0.272-1.684-0.987-2.272,0.021c-1.086,1.853,2.147,2.636,3.319,2.758
					c1.373,0.143,3.278-0.146,4.093-1.404c1.037-1.601-0.49-3.101-1.707-3.975c-0.749-0.538-1.613-0.874-2.395-1.358
					c-0.163-0.1-0.297-0.202-0.438-0.329c-0.393-0.35,0.228-0.09-0.194,0.413c0.355-0.426,0.847-0.118,1.418-0.005
					c-0.163-0.289-0.327-0.577-0.491-0.866c-0.028,0.13-0.156,0.344-0.202,0.511C621.839,378.338,622.931,378.839,623.23,378.145
					L623.23,378.145z"/>
			</g>
		</g>
		<g>
			<g>
				<path fill="#333333" d="M628.671,378.535c-1.069,1.992-0.294,4.509-0.295,6.688c-0.001,2.247-0.155,4.685,0.83,6.749
					c0.67,1.402,3.034,0.404,2.511-1.059c-0.154-0.438-0.296-0.81-0.5-1.217c-0.146-0.297-0.636-0.45-0.911-0.239
					c-0.378,0.288-0.569,0.467-0.885,0.85c0.782,0.324,1.563,0.647,2.346,0.973c-0.24-2.261-0.48-4.524-0.732-6.785
					c-0.209-1.884-0.437-4.323-1.413-5.958C629.414,378.192,628.87,378.165,628.671,378.535L628.671,378.535z"/>
			</g>
		</g>
		<g>
			<g>
				<path fill="#333333" d="M627.951,378.715c0.897-2.854,6.428-0.453,8.025,0.549c1.627,1.021,0.92,2.373-0.425,3.056
					c-1.621,0.82-2.68-0.284-4.164-0.479c-0.298-0.039-0.626,0.245-0.688,0.523c-0.661,2.99,4.166,2.95,5.834,2.287
					c2.723-1.083,3.871-3.959,2.01-6.381c-2.078-2.704-12.879-5.591-11.697,0.444C626.962,379.301,627.792,379.221,627.951,378.715
					L627.951,378.715z"/>
			</g>
		</g>
		<g>
			<g>
				<path fill="#333333" d="M643.516,377.866c-2.172-0.981-3.922,1.427-4.012,3.347c-0.119,2.521,2.143,4.486,4.58,4.305
					c2.28-0.171,4.024-1.814,4.277-4.074c0.239-2.146-2.565-4.335-4.49-2.989c-0.65,0.456-0.604,1.235,0,1.699
					c0.37,0.282,0.915,0.383,1.244,0.645c0.245,0.194,0.201,0.11,0.219,0.487c0.008,0.159-0.058,0.436-0.207,0.621
					c-0.318,0.396-0.709,0.554-1.212,0.662c-0.834,0.178-1.555-0.574-1.629-1.354c-0.113-1.175,0.604-1.456,1.393-2.08
					C644.064,378.828,643.959,378.066,643.516,377.866L643.516,377.866z"/>
			</g>
		</g>
		<g>
			<g>
				<path fill="#333333" d="M648.877,379.583c0.701,1.292,1.443,2.522,1.764,3.979c0.274,1.25,2.101,0.703,1.892-0.521
					c-0.146-0.862-0.487-1.682-0.311-2.571c0.225-1.125,1.557-0.895,2.359-0.68c0.953,0.254,1.587-0.911,0.938-1.609
					c-1.251-1.345-3.819-1.007-4.861,0.452c-1.063,1.487-0.685,3.624,0.083,5.164c0.563-0.33,1.129-0.66,1.692-0.99
					c-0.72-1.367-1.753-2.5-2.628-3.766C649.414,378.476,648.542,378.967,648.877,379.583L648.877,379.583z"/>
			</g>
		</g>
		<g>
			<g>
				<path fill="#333333" d="M657.48,370.922c1.847,1.6,2.402,5.413,2.951,7.658c0.226,0.92,0.941,6.115,2.986,4.553
					c1.844-1.409-0.439-5.905-1.064-7.534c-0.763-1.985-1.731-5.053-3.867-5.979C657.691,369.273,656.707,370.252,657.48,370.922
					L657.48,370.922z"/>
			</g>
		</g>
		<g>
			<g>
				<path fill="#333333" d="M657.567,375.51c-0.604,0.248-0.665,0.4-0.185,0.456c0.374,0.111,0.79,0.159,1.172,0.25
					c0.628,0.148,1.248,0.32,1.883,0.441c1.865,0.355,4.286,0.076,6.05-0.606c1.321-0.512,1.271-2.758-0.358-2.649
					c-2.64,0.175-5.016,0.546-7.656,0.271c-1.043-0.106-3.265,0.271-2.398,1.838C656.39,376.082,657.245,376.061,657.567,375.51
					L657.567,375.51z"/>
			</g>
		</g>
	</g>
</g>
</svg>
